<svg xmlns="http://www.w3.org/2000/svg" viewBox="0 0 4631 1500"><defs><style>.cls-1{fill:#29709c;}</style></defs><title>piTempBotLogo</title><g id="Clean_mit_Text" data-name="Clean mit Text"><path class="cls-1" d="M925.34,881.5v-275a29.69,29.69,0,1,0-59.38,0v275a59.38,59.38,0,1,0,59.38,0Zm-29.69,96.25a44.25,44.25,0,0,1-14.54-86,15.68,15.68,0,0,1-.21-2.49V741.79h29.5V889.21a12.82,12.82,0,0,1-.23,2.49,44.25,44.25,0,0,1-14.52,86Z"/><path class="cls-1" d="M625.6,595.35c-26.6,0-46.9,2.1-57.4,4.9v183.4c13.3,3.5,30.1,4.9,50.4,4.9,73.5,0,118.3-35.7,118.3-100.8C736.9,625.45,692.8,595.35,625.6,595.35Z"/><path class="cls-1" d="M334.65,469v587c0,45.32,40.4,82,90.24,82H557.65v49.27l-116.5,56.48a27.51,27.51,0,0,0-15.5,24.75v72.21a62.51,62.51,0,1,0,55,1v-56l116.5-56.48a27.51,27.51,0,0,0,15.5-24.75V1138h27v74.74l-58.49,55.87a27.53,27.53,0,0,0-8.51,19.89v52.56a62.52,62.52,0,1,0,55,.26v-41.06l58.5-55.87a27.52,27.52,0,0,0,8.5-19.89V1138h28.5v201.81a62.52,62.52,0,1,0,50,.45V1138h28.5v86.5a27.53,27.53,0,0,0,8.51,19.89l58.49,55.87v40.57a62.52,62.52,0,1,0,55,.75V1288.5a27.52,27.52,0,0,0-8.5-19.89l-58.5-55.87V1138h27v66.5a27.5,27.5,0,0,0,15.51,24.75l116.49,56.48v55.46a62.5,62.5,0,1,0,55,0V1268.5a27.51,27.51,0,0,0-15.5-24.75l-116.5-56.48V1138h131.76c49.84,0,90.24-36.73,90.24-82V469Zm117.5,950.8a22.5,22.5,0,1,1,22.5-22.5A22.53,22.53,0,0,1,452.15,1419.8Zm147.75,0a22.5,22.5,0,1,1,22.5-22.5A22.53,22.53,0,0,1,599.9,1419.8Zm147.75,0a22.5,22.5,0,1,1,22.5-22.5A22.53,22.53,0,0,1,747.65,1419.8Zm147.75-45a22.5,22.5,0,1,1-22.5,22.5A22.52,22.52,0,0,1,895.4,1374.8Zm147.75,0a22.5,22.5,0,1,1-22.5,22.5A22.52,22.52,0,0,1,1043.15,1374.8Zm-281.75-589c-32.2,34.3-84.7,51.8-144.2,51.8-18.2,0-35-.7-49-4.2v189H507.3V556.15c29.4-4.9,67.9-9.1,116.9-9.1,60.2,0,104.3,14,132.3,39.2,25.9,22.4,41.3,56.7,41.3,98.7C797.8,727.65,785.2,761.25,761.4,785.75ZM895.65,1022a89.07,89.07,0,0,1-59.37-155.46V606.46a59.38,59.38,0,1,1,118.75,0V866.54A89.08,89.08,0,0,1,895.65,1022Z"/><path class="cls-1" d="M296.37,387.67,724.18,47.26a37.76,37.76,0,0,1,47,0L1199,387.67c28,22.26,12.24,67.33-23.52,67.33H319.89C284.14,455,268.39,409.93,296.37,387.67Z"/><path class="cls-1" d="M944.15,170.51,945,98.9c0-11,13.4-19.9,29.93-19.9h35.83c16.53,0,29.93,8.91,29.93,19.9V247Z"/><path class="cls-1" d="M1335.15,508.15c29.4-4.9,67.9-9.1,116.89-9.1,60.21,0,104.31,14,132.3,39.2,25.91,22.4,41.3,56.7,41.3,98.7,0,42.7-12.6,76.3-36.39,100.8-32.21,34.3-84.71,51.8-144.21,51.8-18.19,0-35-.7-49-4.2v189h-60.9Zm60.9,227.5c13.3,3.5,30.1,4.9,50.4,4.9,73.5,0,118.3-35.7,118.3-100.8,0-62.3-44.11-92.4-111.3-92.4-26.6,0-46.9,2.1-57.4,4.9Z"/><path class="cls-1" d="M1762.85,540.35c.7,21-14.7,37.8-39.2,37.8-21.7,0-37.1-16.8-37.1-37.8,0-21.7,16.1-38.5,38.5-38.5C1748.15,501.85,1762.85,518.65,1762.85,540.35Zm-68.6,434V635.55h61.6v338.8Z"/><path class="cls-1" d="M1949.75,554.35h-143.5v-51.8h349.3v51.8h-144.2v420h-61.6Z"/><path class="cls-1" d="M2190.54,816.15c1.4,83.3,54.6,117.6,116.2,117.6,44.1,0,70.7-7.7,93.8-17.5l10.5,44.1c-21.7,9.8-58.8,21-112.7,21-104.3,0-166.6-68.6-166.6-170.8s60.2-182.7,158.9-182.7c110.6,0,140,97.3,140,159.6a232.33,232.33,0,0,1-2.1,28.7Zm180.6-44.1c.7-39.2-16.1-100.1-85.4-100.1-62.3,0-89.6,57.4-94.5,100.1Z"/><path class="cls-1" d="M2506.94,727.25c0-35-.7-63.7-2.8-91.7H2558l2.8,54.6h2.1c18.9-32.2,50.4-62.3,106.4-62.3,46.2,0,81.2,28,95.9,67.9h1.4a139.57,139.57,0,0,1,37.8-44.1c20.3-15.4,42.69-23.8,74.89-23.8,44.8,0,111.3,29.4,111.3,147v199.5h-60.2V782.55c0-65.1-23.8-104.3-73.49-104.3-35,0-62.3,25.9-72.8,56a101.44,101.44,0,0,0-4.9,30.8v209.3H2719v-203c0-53.9-23.8-93.1-70.7-93.1-38.5,0-66.5,30.8-76.3,61.6-3.5,9.1-4.9,19.6-4.9,30.1v204.4h-60.2Z"/><path class="cls-1" d="M3090.74,746.15c0-43.4-1.4-78.4-2.8-110.6h55.3l2.8,58.1h1.4c25.2-41.3,65.1-65.8,120.4-65.8,81.9,0,143.49,69.3,143.49,172.2,0,121.8-74.19,182-154,182-44.8,0-84-19.6-104.3-53.2h-1.4V1113h-60.9Zm60.9,90.3c0,9.1,1.4,17.5,2.8,25.2,11.2,42.7,48.3,72.1,92.4,72.1,65.1,0,102.9-53.2,102.9-130.9,0-67.9-35.7-126-100.8-126-42,0-81.2,30.1-93.1,76.3-2.1,7.7-4.2,16.8-4.2,25.2Z"/><path class="cls-1" d="M3491.13,508.85c26.6-5.6,68.6-9.8,111.29-9.8,60.91,0,100.1,10.5,129.5,34.3,24.5,18.2,39.2,46.2,39.2,83.3,0,45.5-30.1,85.4-79.8,103.6v1.4c44.8,11.2,97.3,48.3,97.3,118.3,0,40.6-16.1,71.4-39.9,94.5-32.9,30.1-86.1,44.1-163.1,44.1-42,0-74.19-2.8-94.49-5.6Zm60.9,193.2h55.3c64.39,0,102.19-33.6,102.19-79.1,0-55.3-42-77-103.6-77-28,0-44.09,2.1-53.89,4.2Zm0,226.1c11.89,2.1,29.39,2.8,51.09,2.8,63,0,121.1-23.1,121.1-91.7,0-64.4-55.3-91-121.8-91H3552Z"/><path class="cls-1" d="M4177.82,802.15c0,125.3-86.8,179.9-168.7,179.9-91.7,0-162.4-67.2-162.4-174.3,0-113.4,74.2-179.9,168-179.9C4112,627.85,4177.82,698.55,4177.82,802.15Zm-268.8,3.5c0,74.2,42.7,130.2,102.9,130.2,58.8,0,102.9-55.3,102.9-131.6,0-57.4-28.7-130.2-101.5-130.2S3909,741.25,3909,805.65Z"/><path class="cls-1" d="M4329.72,538.25v97.3h88.19v46.9h-88.19v182.7c0,42,11.9,65.8,46.19,65.8,16.11,0,28-2.1,35.71-4.2l2.79,46.2c-11.89,4.9-30.79,8.4-54.59,8.4-28.7,0-51.8-9.1-66.5-25.9-17.5-18.2-23.8-48.3-23.8-88.2V682.45H4217v-46.9h52.5v-81.2Z"/></g></svg>